<?xml version="1.0" standalone="no"?>
<!DOCTYPE svg PUBLIC "-//W3C//DTD SVG 20010904//EN"
 "http://www.w3.org/TR/2001/REC-SVG-20010904/DTD/svg10.dtd">
<svg version="1.0" xmlns="http://www.w3.org/2000/svg"
 width="512.000000pt" height="512.000000pt" viewBox="0 0 512.000000 512.000000"
 preserveAspectRatio="xMidYMid meet">
<metadata>
Created by potrace 1.14, written by Peter Selinger 2001-2017
</metadata>
<g transform="translate(0.000000,512.000000) scale(0.100000,-0.100000)"
fill="#000000" stroke="none">
<path d="M730 4205 l-19 -45 -78 0 c-129 0 -123 13 -123 -263 -1 -182 -4 -237
-15 -257 -19 -33 -19 -100 0 -126 12 -18 29 -22 102 -28 102 -9 135 -22 202
-82 66 -59 81 -95 81 -191 0 -159 -48 -381 -141 -649 -55 -159 -94 -233 -218
-414 -165 -239 -229 -344 -297 -485 -62 -131 -117 -285 -129 -361 -8 -54 9
-115 43 -155 33 -40 162 -125 202 -134 18 -4 32 -15 36 -28 4 -12 22 -43 41
-69 l35 -48 467 0 c422 0 469 2 491 17 37 25 41 33 38 90 -1 45 2 56 29 86 38
44 47 81 38 163 -8 78 8 139 72 277 42 88 51 100 96 128 l50 30 -8 52 c-15 95
-10 118 41 222 47 95 51 100 92 113 52 17 60 41 42 119 l-14 55 70 140 c38 77
79 147 91 155 12 8 49 17 81 20 54 5 67 2 149 -36 l90 -41 239 1 c131 0 345 4
474 7 212 6 238 9 270 28 54 31 59 60 26 144 -25 64 -29 86 -34 235 -6 185 -3
195 66 239 36 24 44 25 492 46 250 12 463 25 472 31 24 13 95 11 104 -2 13
-22 321 9 444 45 37 10 49 20 65 52 17 34 20 63 23 216 3 159 6 178 23 194 17
15 19 32 19 165 0 132 -2 149 -18 161 -11 8 -21 31 -25 56 -8 65 -29 82 -99
82 -32 0 -58 4 -58 10 0 5 -13 16 -30 25 -28 15 -30 14 -46 -10 l-16 -25 -859
0 c-561 0 -860 -3 -864 -10 -4 -6 -132 -10 -350 -10 -218 0 -346 4 -350 10 -4
7 -263 10 -744 10 l-737 0 -12 45 c-12 44 -13 45 -52 45 -39 0 -42 -2 -60 -45z
m2337 -1051 c63 -31 118 -90 132 -141 14 -50 14 -162 0 -218 -14 -54 -65 -116
-116 -140 -33 -16 -77 -19 -350 -23 -305 -5 -313 -4 -372 18 -77 28 -137 80
-151 128 -21 78 -4 196 32 218 17 11 39 -19 36 -50 -3 -31 -2 -31 47 -34 62
-4 75 -15 75 -63 0 -35 2 -39 26 -39 17 0 44 -16 79 -48 50 -46 167 -112 198
-112 8 0 20 7 27 15 7 8 9 15 4 15 -5 0 2 6 16 13 14 7 25 19 25 26 0 8 -34
42 -75 76 -92 75 -119 121 -127 213 -8 94 8 139 50 147 73 13 189 22 288 24
94 1 110 -2 156 -25z"/>
</g>
</svg>
